HIERARCHY
ROOT Hips
{
    OFFSET   0.000000   0.000000   0.000000
    CHANNELS 6 Xposition Yposition Zposition Zrotation Xrotation Yrotation
    JOINT Chest
    {
        OFFSET   0.000000   8.007240   0.000000
        CHANNELS 3 Zrotation Xrotation Yrotation
        JOINT Chest2
        {
            OFFSET   0.000000  22.077100   0.000000
            CHANNELS 3 Zrotation Xrotation Yrotation
            JOINT Neck
            {
                OFFSET   0.000000  23.254800   0.000000
                CHANNELS 3 Zrotation Xrotation Yrotation
                JOINT Head
                {
                    OFFSET   0.000000  14.370000   1.956600
                    CHANNELS 3 Zrotation Xrotation Yrotation
                    End Site
                    {
                        OFFSET   0.000000  19.566000   0.000000
                    }
                }
            }
            JOINT LeftCollar
            {
                OFFSET   3.911900  19.017000  -0.467064
                CHANNELS 3 Zrotation Xrotation Yrotation
                JOINT LeftShoulder
                {
                    OFFSET  10.383700   0.000000   0.000000
                    CHANNELS 3 Zrotation Xrotation Yrotation
                    JOINT LeftElbow
                    {
                        OFFSET  26.662100   0.001476   0.000517
                        CHANNELS 3 Zrotation Xrotation Yrotation
                        JOINT LeftWrist
                        {
                            OFFSET  28.869000  -0.000025  -0.000106
                            CHANNELS 3 Zrotation Xrotation Yrotation
                            JOINT LeftFinger0
                            {
                                OFFSET   2.044660  -2.323460   3.252850
                                CHANNELS 3 Zrotation Xrotation Yrotation
                                JOINT LeftFinger01
                                {
                                    OFFSET   3.088130   0.000000   0.000000
                                    CHANNELS 3 Zrotation Xrotation Yrotation
                                    JOINT LeftFinger02
                                    {
                                        OFFSET   2.639460   0.000000   0.000000
                                        CHANNELS 3 Zrotation Xrotation Yrotation
                                        End Site
                                        {
                                            OFFSET   2.582190   0.000000   0.000000
                                        }
                                    }
                                }
                            }
                            JOINT LeftFinger1
                            {
                                OFFSET   8.364480   0.000000   3.252850
                                CHANNELS 3 Zrotation Xrotation Yrotation
                                JOINT LeftFinger11
                                {
                                    OFFSET   4.646930   0.000000   0.000000
                                    CHANNELS 3 Zrotation Xrotation Yrotation
                                    JOINT LeftFinger12
                                    {
                                        OFFSET   2.323460   0.000000   0.000000
                                        CHANNELS 3 Zrotation Xrotation Yrotation
                                        End Site
                                        {
                                            OFFSET   2.273050   0.000000   0.000000
                                        }
                                    }
                                }
                            }
                            JOINT LeftFinger2
                            {
                                OFFSET   8.364490   0.000015   1.078090
                                CHANNELS 3 Zrotation Xrotation Yrotation
                                JOINT LeftFinger21
                                {
                                    OFFSET   5.111620   0.000000   0.000000
                                    CHANNELS 3 Zrotation Xrotation Yrotation
                                    JOINT LeftFinger22
                                    {
                                        OFFSET   2.788160   0.000016   0.000000
                                        CHANNELS 3 Zrotation Xrotation Yrotation
                                        End Site
                                        {
                                            OFFSET   2.727660   0.000000   0.000000
                                        }
                                    }
                                }
                            }
                            JOINT LeftFinger3
                            {
                                OFFSET   7.899780   0.000017  -1.078090
                                CHANNELS 3 Zrotation Xrotation Yrotation
                                JOINT LeftFinger31
                                {
                                    OFFSET   4.646930   0.000000   0.000000
                                    CHANNELS 3 Zrotation Xrotation Yrotation
                                    JOINT LeftFinger32
                                    {
                                        OFFSET   2.323470   0.000000   0.000000
                                        CHANNELS 3 Zrotation Xrotation Yrotation
                                        End Site
                                        {
                                            OFFSET   2.273050   0.000000   0.000000
                                        }
                                    }
                                }
                            }
                            JOINT LeftFinger4
                            {
                                OFFSET   7.435090   0.000000  -3.252850
                                CHANNELS 3 Zrotation Xrotation Yrotation
                                JOINT LeftFinger41
                                {
                                    OFFSET   3.717550   0.000000   0.000000
                                    CHANNELS 3 Zrotation Xrotation Yrotation
                                    JOINT LeftFinger42
                                    {
                                        OFFSET   1.858770   0.000000   0.000000
                                        CHANNELS 3 Zrotation Xrotation Yrotation
                                        End Site
                                        {
                                            OFFSET   1.818440   0.000000   0.000000
                                        }
                                    }
                                }
                            }
                        }
                    }
                }
            }
            JOINT RightCollar
            {
                OFFSET  -3.911900  19.017000  -0.467063
                CHANNELS 3 Zrotation Xrotation Yrotation
                JOINT RightShoulder
                {
                    OFFSET -10.383700   0.000019   0.000000
                    CHANNELS 3 Zrotation Xrotation Yrotation
                    JOINT RightElbow
                    {
                        OFFSET -26.662100   0.001175   0.000102
                        CHANNELS 3 Zrotation Xrotation Yrotation
                        JOINT RightWrist
                        {
                            OFFSET -28.869000   0.000016  -0.000079
                            CHANNELS 3 Zrotation Xrotation Yrotation
                            JOINT RightFinger0
                            {
                                OFFSET  -2.044660  -2.323490   3.252850
                                CHANNELS 3 Zrotation Xrotation Yrotation
                                JOINT RightFinger01
                                {
                                    OFFSET  -3.088140   0.000000   0.000000
                                    CHANNELS 3 Zrotation Xrotation Yrotation
                                    JOINT RightFinger02
                                    {
                                        OFFSET  -2.639460   0.000000   0.000000
                                        CHANNELS 3 Zrotation Xrotation Yrotation
                                        End Site
                                        {
                                            OFFSET  -2.582190   0.000000   0.000000
                                        }
                                    }
                                }
                            }
                            JOINT RightFinger1
                            {
                                OFFSET  -8.364480   0.000000   3.252850
                                CHANNELS 3 Zrotation Xrotation Yrotation
                                JOINT RightFinger11
                                {
                                    OFFSET  -4.646930   0.000000   0.000000
                                    CHANNELS 3 Zrotation Xrotation Yrotation
                                    JOINT RightFinger12
                                    {
                                        OFFSET  -2.323470   0.000000   0.000000
                                        CHANNELS 3 Zrotation Xrotation Yrotation
                                        End Site
                                        {
                                            OFFSET  -2.273050   0.000000   0.000000
                                        }
                                    }
                                }
                            }
                            JOINT RightFinger2
                            {
                                OFFSET  -8.364480   0.000000   1.078090
                                CHANNELS 3 Zrotation Xrotation Yrotation
                                JOINT RightFinger21
                                {
                                    OFFSET  -5.111620   0.000000   0.000000
                                    CHANNELS 3 Zrotation Xrotation Yrotation
                                    JOINT RightFinger22
                                    {
                                        OFFSET  -2.788160   0.000000   0.000000
                                        CHANNELS 3 Zrotation Xrotation Yrotation
                                        End Site
                                        {
                                            OFFSET  -2.727660   0.000000   0.000000
                                        }
                                    }
                                }
                            }
                            JOINT RightFinger3
                            {
                                OFFSET  -7.899780   0.000000  -1.078090
                                CHANNELS 3 Zrotation Xrotation Yrotation
                                JOINT RightFinger31
                                {
                                    OFFSET  -4.646930   0.000000   0.000000
                                    CHANNELS 3 Zrotation Xrotation Yrotation
                                    JOINT RightFinger32
                                    {
                                        OFFSET  -2.323470   0.000000   0.000000
                                        CHANNELS 3 Zrotation Xrotation Yrotation
                                        End Site
                                        {
                                            OFFSET  -2.273050   0.000000   0.000000
                                        }
                                    }
                                }
                            }
                            JOINT RightFinger4
                            {
                                OFFSET  -7.435090   0.000000  -3.252850
                                CHANNELS 3 Zrotation Xrotation Yrotation
                                JOINT RightFinger41
                                {
                                    OFFSET  -3.717550   0.000000   0.000000
                                    CHANNELS 3 Zrotation Xrotation Yrotation
                                    JOINT RightFinger42
                                    {
                                        OFFSET  -1.858770   0.000000   0.000000
                                        CHANNELS 3 Zrotation Xrotation Yrotation
                                        End Site
                                        {
                                            OFFSET  -1.818440   0.000000   0.000000
                                        }
                                    }
                                }
                            }
                        }
                    }
                }
            }
        }
    }
    JOINT LeftHip
    {
        OFFSET   9.783040   0.000000   0.000000
        CHANNELS 3 Zrotation Xrotation Yrotation
        JOINT LeftKnee
        {
            OFFSET   0.000032 -41.789100  -0.002222
            CHANNELS 3 Zrotation Xrotation Yrotation
            JOINT LeftAnkle
            {
                OFFSET   0.000087 -41.133200  -0.000135
                CHANNELS 3 Zrotation Xrotation Yrotation
                JOINT LeftToe
                {
                    OFFSET   0.000000  -6.358960  14.674500
                    CHANNELS 3 Zrotation Xrotation Yrotation
                    End Site
                    {
                        OFFSET   0.000000   0.000000   3.913200
                    }
                }
            }
        }
    }
    JOINT RightHip
    {
        OFFSET  -9.783040   0.000000   0.000000
        CHANNELS 3 Zrotation Xrotation Yrotation
        JOINT RightKnee
        {
            OFFSET   0.000047 -41.789100  -0.000896
            CHANNELS 3 Zrotation Xrotation Yrotation
            JOINT RightAnkle
            {
                OFFSET  -0.000117 -41.133300  -0.000248
                CHANNELS 3 Zrotation Xrotation Yrotation
                JOINT RightToe
                {
                    OFFSET   0.000000  -6.358970  14.674500
                    CHANNELS 3 Zrotation Xrotation Yrotation
                    End Site
                    {
                        OFFSET   0.000000   0.000000   3.913200
                    }
                }
            }
        }
    }
}
MOTION
Frames: 6
Frame Time:   0.016667
  0.084778  89.486700   1.180830  -2.447630  -3.945190  -1.527680   1.041260   2.729520  -0.080059   2.089920   5.457130  -0.210187   2.122450   0.606155  -0.018176   3.488020   1.224120   5.162150  -2.607960   3.441650  -2.269140 -72.089500  18.456700  -6.434510  -3.197080  -3.368800 -10.677000   7.446550  -7.749240  15.843800  38.070700  24.982700 -57.623100 -26.872100  -0.005880   0.011718  -8.436090  -0.002940   0.002347 -36.118200   5.894130  -8.010670 -29.889200  -0.001551  -0.002236 -20.922400   0.005005  -0.001822 -29.338400   1.101330  -1.958220 -44.035800  -0.001855  -0.000802 -29.327800   0.010471  -0.000920 -28.457800  -4.891450   8.950240 -43.269500   0.008043   0.000702 -28.817400   0.001904   0.000356 -36.204100  -6.055310   8.209380 -54.957900  -0.001809   0.000487 -36.602000   0.002238  -0.001817   6.474890   0.036359   8.976600  72.770400  15.718000  -0.285323   1.219350   3.213950   7.765600 -18.341400 -16.937200   1.404630 -46.237100  33.978700  71.842000  16.877700  -0.001313  -0.000118   3.438850  -0.004126   0.000935  30.661400   3.373380   5.668240  25.223200  -0.007343   0.000225  17.656200   0.000620   0.000891  28.146600   1.487140   2.776940  33.288800  -0.001656  -0.007981  22.170300  -0.002961  -0.002894  28.423300  -0.269002  -0.497009  35.401400   0.000734  -0.001347  23.577400  -0.005708  -0.008167  34.785600  -1.529410  -2.200520  52.222400  -0.000852  -0.008385  34.780100  -0.008382  -0.004317   3.506530   7.448270   0.499789   1.352600   0.469325  -0.175871  -2.644310  -3.442870  13.384600   0.000000   0.000000  -0.000000   1.291900   2.974990  -5.754580   1.048990   4.966310   4.752910  -4.123450  -3.583050  -0.060031   0.000000   0.000000   0.000000
  0.055050  89.486900   1.189270  -2.479490  -3.945010  -1.547590   1.008780   2.737210  -0.045122   2.023210   5.473190  -0.138784   2.062500   0.576812  -0.018179   3.389320   1.164930   5.177230  -2.632150   3.414220  -2.294550 -72.074900  18.397500  -6.372070  -3.196120  -3.369000 -10.660700   7.437180  -7.713810  15.804200  38.158400  25.075500 -57.672100 -26.807500  -0.006109   0.011786  -8.403780  -0.003057   0.002362 -36.050300   5.908960  -8.050290 -29.836200  -0.001559  -0.002254 -20.885300   0.005001  -0.001836 -29.292900   1.122300  -1.999020 -43.968500  -0.001873  -0.000818 -29.283000   0.010465  -0.000929 -28.429600  -4.891400   8.954250 -43.223200   0.008039   0.000707 -28.786600   0.001895   0.000360 -36.165600  -6.055220   8.215100 -54.900900  -0.001820   0.000474 -36.564000   0.002217  -0.001795   6.475280   0.003080   8.972260  72.765600  15.773800  -0.245186   1.224110   3.185560   7.754590 -18.355300 -16.947700   1.361190 -46.248100  33.973800  71.833200  16.887400  -0.001314  -0.000120   3.443680  -0.004123   0.000930  30.648500   3.365520   5.657710  25.212200  -0.007341   0.000227  17.648500   0.000623   0.000890  28.147400   1.477520   2.759320  33.262900  -0.001657  -0.007981  22.153100  -0.002960  -0.002895  28.423100  -0.281138  -0.519515  35.372100   0.000734  -0.001344  23.557300  -0.005706  -0.008166  34.764000  -1.549840  -2.231580  52.192700  -0.000843  -0.008385  34.759900  -0.008381  -0.004314   3.560680   7.469390   0.499978   1.350580   0.452130  -0.174320  -2.654200  -3.456340  13.394300  -0.000000   0.000000  -0.000000   1.333760   2.958270  -5.790900   1.045830   4.991420   4.767500  -4.138590  -3.584080  -0.019883   0.000000   0.000000   0.000000
  0.007388  89.487000   1.203670  -2.530320  -3.944800  -1.580970   0.954512   2.750090   0.013126   1.911720   5.500030  -0.019714   1.963140   0.529026  -0.018182   3.225810   1.068680   5.200310  -2.667540   3.369270  -2.337290 -72.059700  18.303000  -6.266590  -3.194740  -3.369270 -10.637200   7.425410  -7.656720  15.737000  38.237500  25.173300 -57.725100 -26.718200  -0.006495   0.011929  -8.359140  -0.003251   0.002400 -35.982400   5.923780  -8.089910 -29.783200  -0.001574  -0.002295 -20.848200   0.004990  -0.001866 -29.246800   1.151410  -2.055290 -43.901200  -0.001913  -0.000855 -29.238200   0.010449  -0.000950 -28.401100  -4.891300   8.961140 -43.176900   0.008034   0.000719 -28.755800   0.001871   0.000366 -36.126900  -6.055100   8.223110 -54.843900  -0.001849   0.000445 -36.526000   0.002160  -0.001736   6.479100  -0.052048   8.963420  72.753200  15.859700  -0.177252   1.231880   3.137710   7.738430 -18.382600 -16.971000   1.285510 -46.256900  33.961500  71.815400  16.903200  -0.001315  -0.000126   3.451600  -0.004120   0.000925  30.636300   3.353680   5.640990  25.201300  -0.007340   0.000229  17.640800   0.000626   0.000888  28.148800   1.462140   2.730980  33.237000  -0.001658  -0.007980  22.135900  -0.002957  -0.002897  28.422600  -0.301268  -0.556812  35.338900   0.000735  -0.001339  23.535700  -0.005702  -0.008163  34.738400  -1.583460  -2.282220  52.154800  -0.000820  -0.008386  34.735100  -0.008378  -0.004307   3.648270   7.503860   0.500288   1.345840   0.426141  -0.170623  -2.670740  -3.477650  13.412000   0.000000   0.000000   0.000000   1.400900   2.933820  -5.844690   1.041160   5.030670   4.787400  -4.162270  -3.586830   0.044979   0.000000   0.000000  -0.000000
 -0.027438  89.485900   1.216080  -2.567930  -3.944780  -1.610690   0.910725   2.760630   0.060771   1.821700   5.521860   0.077682   1.884850   0.492127  -0.017085   3.097140   0.994787   5.214310  -2.683400   3.333320  -2.372020 -72.069700  18.236100  -6.177180  -3.192870  -3.362920 -10.626000   7.425290  -7.613200  15.680400  38.235300  25.171100 -57.742700 -26.684100  -0.006894   0.012126  -8.342090  -0.003439   0.002463 -36.029700   5.922430  -8.073600 -29.821100  -0.001593  -0.002357 -20.874800   0.004972  -0.001908 -29.246300   1.162360  -2.076370 -43.901600  -0.001969  -0.000910 -29.238400   0.010428  -0.000980 -28.437800  -4.904010   8.968870 -43.233900   0.008030   0.000736 -28.793700   0.001832   0.000369 -36.178900  -6.071250   8.226770 -54.923700  -0.001893   0.000401 -36.579100   0.002070  -0.001643   6.489160  -0.095894   8.953210  72.728200  15.916400  -0.119336   1.237990   3.097340   7.728840 -18.415000 -17.003200   1.215760 -46.238700  33.938800  71.787900  16.911700  -0.001307  -0.000134   3.455830  -0.004124   0.000936  30.639600   3.348300   5.631580  25.203400  -0.007346   0.000230  17.643400   0.000624   0.000887  28.149600   1.452450   2.712800  33.242900  -0.001659  -0.007975  22.139800  -0.002955  -0.002901  28.422300  -0.316146  -0.584320  35.334300   0.000733  -0.001335  23.534000  -0.005697  -0.008161  34.733500  -1.608030  -2.318160  52.146400  -0.000786  -0.008386  34.730600  -0.008374  -0.004294   3.715840   7.530820   0.500571   1.337020   0.409217  -0.163590  -2.684300  -3.492390  13.430500  -0.000000   0.000000  -0.000000   1.451440   2.921460  -5.873260   1.038550   5.056630   4.793960  -4.177620  -3.591370   0.094646   0.000000   0.000000   0.000000
 -0.058690  89.483700   1.228450  -2.599290  -3.944990  -1.635490   0.867014   2.771090   0.106431   1.731910   5.543450   0.171116   1.807120   0.458607  -0.015185   2.969410   0.927582   5.226130  -2.697390   3.301400  -2.407850 -72.086200  18.175000  -6.089850  -3.190660  -3.353250 -10.619000   7.427030  -7.576070  15.622500  38.243000  25.155500 -57.770200 -26.674700  -0.007137   0.012322  -8.337380  -0.003550   0.002533 -36.096400   5.921110  -8.055010 -29.874800  -0.001614  -0.002427 -20.912400   0.004950  -0.001957 -29.248200   1.166450  -2.081980 -43.904100  -0.002030  -0.000972 -29.240200   0.010401  -0.001015 -28.491300  -4.916760   8.973710 -43.316100   0.008025   0.000756 -28.848500   0.001784   0.000372 -36.255000  -6.087430   8.228140 -55.040000  -0.001941   0.000352 -36.656600   0.001960  -0.001526   6.501910  -0.138432   8.940500  72.693600  15.959400  -0.063100   1.243540   3.058310   7.724290 -18.448100 -17.039000   1.146690 -46.219900  33.919800  71.769200  16.927300  -0.001299  -0.000143   3.463650  -0.004129   0.000947  30.645500   3.341570   5.618730  25.207800  -0.007356   0.000231  17.647600   0.000622   0.000886  28.150600   1.441000   2.691160  33.257400  -0.001662  -0.007971  22.149400  -0.002952  -0.002906  28.421800  -0.332939  -0.615337  35.333700   0.000729  -0.001330  23.533700  -0.005692  -0.008158  34.730400  -1.634970  -2.357110  52.144000  -0.000742  -0.008385  34.729100  -0.008368  -0.004277   3.774060   7.554960   0.500747   1.330900   0.398972  -0.158703  -2.697560  -3.505590  13.448300  -0.000000   0.000000   0.000000   1.494350   2.913140  -5.894390   1.036930   5.079450   4.795300  -4.191760  -3.596780   0.137676   0.000000   0.000000   0.000000
 -0.085406  89.481300   1.239960  -2.618990  -3.948240  -1.646750   0.823310   2.781260   0.145978   1.642430   5.564330   0.252321   1.730520   0.431751  -0.013433   2.843420   0.872987   5.237670  -2.717920   3.279310  -2.443960 -72.098100  18.117700  -6.011120  -3.194510  -3.346690 -10.615000   7.424140  -7.558030  15.563600  38.221200  25.110000 -57.796800 -26.677200  -0.006978   0.012385  -8.338640  -0.003475   0.002603 -36.127200   5.924440  -8.052400 -29.900000  -0.001638  -0.002496 -20.930100   0.004926  -0.002010 -29.269500   1.167310  -2.081760 -43.935600  -0.002088  -0.001033 -29.261200   0.010369  -0.001052 -28.521200  -4.908030   8.949460 -43.360100   0.008016   0.000778 -28.877800   0.001730   0.000378 -36.299800  -6.077020   8.204140 -55.106000  -0.001986   0.000306 -36.700700   0.001839  -0.001394   6.515330  -0.177102   8.925820  72.654400  15.978700  -0.012060   1.245400   3.023970   7.728310 -18.473300 -17.072100   1.088520 -46.214400  33.915100  71.769100  16.963700  -0.001301  -0.000148   3.481870  -0.004128   0.000937  30.651400   3.327490   5.593900  25.211500  -0.007365   0.000230  17.649200   0.000621   0.000885  28.152400   1.422770   2.656800  33.276600  -0.001672  -0.007971  22.162200  -0.002949  -0.002912  28.421400  -0.355528  -0.657069  35.334700   0.000727  -0.001320  23.534200  -0.005686  -0.008155  34.725900  -1.669200  -2.407070  52.139700  -0.000688  -0.008388  34.725600  -0.008360  -0.004255   3.813640   7.576650   0.499347   1.331340   0.396504  -0.159036  -2.710550  -3.516190  13.460700  -0.000000   0.000000   0.000000   1.522290   2.906840  -5.911670   1.037230   5.100930   4.791020  -4.206750  -3.602300   0.168365   0.000000   0.000000  -0.000000
